<?xml version="1.0" encoding="UTF-8"?>
<svg width="31px" height="30px" viewBox="0 0 81 80" version="1.1" xmlns="http://www.w3.org/2000/svg" xmlns:xlink="http://www.w3.org/1999/xlink">
    <title>Regular-S</title>
    <g id="Page-1" stroke="none" stroke-width="1" fill="none" fill-rule="evenodd">
        <g id="checkmark.circle.fill" transform="translate(-1409.000000, -621.000000)" fill="#000000" fill-rule="nonzero">
            <g id="Symbols" transform="translate(498.000000, 618.000000)">
                <g id="Regular-S" transform="translate(911.580000, 3.000000)">
                    <path d="M40.2402,79.15039 C61.7734,79.15039 79.6934,61.2793 79.6934,39.7461 C79.6934,18.2129 61.7246,0.3418 40.1914,0.3418 C18.707,0.3418 0.83594,18.2129 0.83594,39.7461 C0.83594,61.2793 18.7559,79.15039 40.2402,79.15039 Z M35.8945,58.5449 C34.3809,58.5449 33.1602,57.959 31.9883,56.3965 L22.9062,45.0195 C22.2227,44.1895 21.8809,43.2129 21.8809,42.2363 C21.8809,40.2344 23.3457,38.623 25.3965,38.623 C26.6172,38.623 27.5938,39.0137 28.668,40.4785 L35.6992,49.8535 L51.2754,24.6582 C52.0566,23.291 53.1797,22.6074 54.3516,22.6074 C56.3047,22.6074 58.0625,23.877 58.0625,25.9766 C58.0625,26.9531 57.5254,27.9785 56.9395,28.8574 L39.5566,56.3965 C38.6289,57.8613 37.3594,58.5449 35.8945,58.5449 Z" id="Shape"></path>
                </g>
            </g>
        </g>
    </g>
</svg>